<svg width="78" height="79" viewBox="0 0 78 79" fill="none" xmlns="http://www.w3.org/2000/svg">
<g id="ph:info">
<path id="Vector" d="M39 7.40625C32.7328 7.40625 26.6064 9.28852 21.3954 12.815C16.1844 16.3415 12.1229 21.3539 9.72458 27.2183C7.32623 33.0826 6.69871 39.5356 7.92138 45.7612C9.14405 51.9868 12.162 57.7053 16.5936 62.1937C21.0251 66.6821 26.6713 69.7387 32.8181 70.9771C38.9649 72.2154 45.3362 71.5799 51.1263 69.1508C56.9164 66.7217 61.8653 62.6081 65.3472 57.3303C68.8291 52.0525 70.6875 45.8475 70.6875 39.5C70.6786 30.991 67.3373 22.833 61.3967 16.8162C55.456 10.7994 47.4013 7.41524 39 7.40625ZM39 66.6562C33.697 66.6562 28.5131 65.0636 24.1038 62.0796C19.6945 59.0956 16.2579 54.8544 14.2285 49.8922C12.1991 44.9301 11.6681 39.4699 12.7027 34.2021C13.7373 28.9343 16.2909 24.0955 20.0407 20.2976C23.7905 16.4998 28.568 13.9134 33.7692 12.8655C38.9703 11.8177 44.3614 12.3555 49.2607 14.4109C54.1601 16.4663 58.3476 19.947 61.2938 24.4128C64.24 28.8786 65.8125 34.129 65.8125 39.5C65.8044 46.6998 62.977 53.6023 57.9504 58.6933C52.9238 63.7844 46.1087 66.6481 39 66.6562ZM43.875 54.3125C43.875 54.9673 43.6182 55.5952 43.1611 56.0582C42.704 56.5212 42.084 56.7812 41.4375 56.7812C40.1446 56.7812 38.9046 56.261 37.9904 55.3351C37.0761 54.4091 36.5625 53.1533 36.5625 51.8438V39.5C35.916 39.5 35.2961 39.2399 34.8389 38.7769C34.3818 38.3139 34.125 37.686 34.125 37.0312C34.125 36.3765 34.3818 35.7486 34.8389 35.2856C35.2961 34.8226 35.916 34.5625 36.5625 34.5625C37.8554 34.5625 39.0954 35.0827 40.0097 36.0087C40.9239 36.9346 41.4375 38.1905 41.4375 39.5V51.8438C42.084 51.8438 42.704 52.1038 43.1611 52.5668C43.6182 53.0298 43.875 53.6577 43.875 54.3125ZM34.125 25.9219C34.125 25.1895 34.3394 24.4735 34.7412 23.8645C35.143 23.2556 35.714 22.7809 36.3821 22.5006C37.0502 22.2204 37.7853 22.147 38.4946 22.2899C39.2038 22.4328 39.8553 22.7855 40.3666 23.3034C40.878 23.8213 41.2262 24.4811 41.3673 25.1994C41.5083 25.9178 41.4359 26.6623 41.1592 27.339C40.8825 28.0157 40.4138 28.594 39.8126 29.0009C39.2113 29.4078 38.5044 29.625 37.7813 29.625C36.8116 29.625 35.8816 29.2349 35.1959 28.5404C34.5102 27.8459 34.125 26.904 34.125 25.9219Z" fill="black"/>
</g>
</svg>
