<svg width="41" height="41" viewBox="0 0 41 41" fill="none" xmlns="http://www.w3.org/2000/svg">
<path id="Vector" d="M20.3125 0C9.1125 0 0 9.1125 0 20.3125C0 31.5125 9.1125 40.625 20.3125 40.625C31.5125 40.625 40.625 31.5125 40.625 20.3125C40.625 9.1125 31.5125 0 20.3125 0ZM20.3125 3.125C29.7891 3.125 37.5 10.8359 37.5 20.3125C37.5 25.6375 35.0625 30.4016 31.25 33.5578V20.3125C31.25 19.8981 31.0854 19.5007 30.7924 19.2076C30.4993 18.9146 30.1019 18.75 29.6875 18.75C29.2731 18.75 28.8757 18.9146 28.5826 19.2076C28.2896 19.5007 28.125 19.8981 28.125 20.3125V35.6016C25.7093 36.8478 23.0307 37.4987 20.3125 37.5C17.4984 37.5 14.8469 36.8062 12.5 35.6016V20.3125C12.5 19.8981 12.3354 19.5007 12.0424 19.2076C11.7493 18.9146 11.3519 18.75 10.9375 18.75C10.5231 18.75 10.1257 18.9146 9.83265 19.2076C9.53962 19.5007 9.375 19.8981 9.375 20.3125V33.5578C5.5625 30.4016 3.125 25.6359 3.125 20.3125C3.125 10.8359 10.8359 3.125 20.3125 3.125ZM14.0625 10.9375C12.125 10.9375 10.6562 12.0156 9.67187 12.9375C8.67187 13.8594 8.0625 14.75 8.0625 14.75L10.6875 16.5C10.6875 16.5 11.0781 15.8281 11.7656 15.1875C12.4531 14.5469 13.3594 14.0625 14.0625 14.0625H18.75V10.9375H14.0625ZM21.875 10.9375V14.0625H26.5625C27.2656 14.0625 28.1719 14.5469 28.8594 15.1875C29.5469 15.8281 29.9375 16.5 29.9375 16.5L32.5625 14.75C32.5625 14.75 31.9531 13.8594 30.9531 12.9375C29.9687 12.0156 28.5 10.9375 26.5625 10.9375H21.875ZM20.3125 20.3125C17.7281 20.3125 15.625 22.7656 15.625 25.7812C15.625 28.7969 17.7281 31.25 20.3125 31.25C22.8969 31.25 25 28.7969 25 25.7812C25 22.7656 22.8969 20.3125 20.3125 20.3125ZM20.3125 23.4375C21.1438 23.4375 21.875 24.5328 21.875 25.7812C21.875 27.0297 21.1438 28.125 20.3125 28.125C19.4812 28.125 18.75 27.0297 18.75 25.7812C18.75 24.5328 19.4812 23.4375 20.3125 23.4375Z" fill="black"/>
</svg>
