<svg width="40" height="40" viewBox="0 0 40 40" fill="none" xmlns="http://www.w3.org/2000/svg">
<path id="Vector" d="M20 40C8.954 40 0 31.046 0 20C0 8.954 8.954 0 20 0C31.046 0 40 8.954 40 20C40 31.046 31.046 40 20 40ZM20 36C24.2435 36 28.3131 34.3143 31.3137 31.3137C34.3143 28.3131 36 24.2435 36 20C36 15.7565 34.3143 11.6869 31.3137 8.68629C28.3131 5.68571 24.2435 4 20 4C15.7565 4 11.6869 5.68571 8.68629 8.68629C5.68571 11.6869 4 15.7565 4 20C4 24.2435 5.68571 28.3131 8.68629 31.3137C11.6869 34.3143 15.7565 36 20 36ZM12 24H28V28H12V24ZM12 18C11.2044 18 10.4413 17.6839 9.87868 17.1213C9.31607 16.5587 9 15.7956 9 15C9 14.2044 9.31607 13.4413 9.87868 12.8787C10.4413 12.3161 11.2044 12 12 12C12.7956 12 13.5587 12.3161 14.1213 12.8787C14.6839 13.4413 15 14.2044 15 15C15 15.7956 14.6839 16.5587 14.1213 17.1213C13.5587 17.6839 12.7956 18 12 18ZM28 18C27.2044 18 26.4413 17.6839 25.8787 17.1213C25.3161 16.5587 25 15.7956 25 15C25 14.2044 25.3161 13.4413 25.8787 12.8787C26.4413 12.3161 27.2044 12 28 12C28.7956 12 29.5587 12.3161 30.1213 12.8787C30.6839 13.4413 31 14.2044 31 15C31 15.7956 30.6839 16.5587 30.1213 17.1213C29.5587 17.6839 28.7956 18 28 18Z" fill="black"/>
</svg>
